<?xml version="1.0" encoding="utf-8"?>
<!-- Generator: Adobe Illustrator 17.1.0, SVG Export Plug-In . SVG Version: 6.00 Build 0)  -->
<!DOCTYPE svg PUBLIC "-//W3C//DTD SVG 1.1//EN" "http://www.w3.org/Graphics/SVG/1.1/DTD/svg11.dtd">
<svg version="1.1" id="Layer_1" xmlns="http://www.w3.org/2000/svg" xmlns:xlink="http://www.w3.org/1999/xlink" x="0px" y="0px"
	 viewBox="0 0 107 218" enable-background="new 0 0 107 218" xml:space="preserve">
<g>
	<path fill="none" stroke="#42485C" stroke-width="3" stroke-miterlimit="10" d="M45.8,263v-27.2c0-0.7,0.6-1.3,1.3-1.3h91.5
		c0.7,0,1.3,0.6,1.3,1.3v91.5c0,0.7-0.6,1.3-1.3,1.3h-29.2"/>
	<path fill="none" stroke="#42485C" stroke-width="3" stroke-miterlimit="10" d="M104.8,344.5c0,0.6-0.5,1-1,1h-74c-0.6,0-1-0.5-1-1
		v-74c0-0.6,0.5-1,1-1h74c0.6,0,1,0.5,1,1V344.5z"/>
	<line fill="none" stroke="#42485C" stroke-width="3" stroke-miterlimit="10" x1="76.6" y1="298.1" x2="98.3" y2="276.3"/>
	<polyline fill="none" stroke="#42485C" stroke-width="3" stroke-miterlimit="10" points="88,276.3 98.6,276.2 98.4,287.6 	"/>
</g>
<path fill="none" stroke="#42485C" stroke-width="3" stroke-miterlimit="10" d="M399.8,236v39.2c0,0.7-0.6,1.3-1.3,1.3h-91.5
	c-0.7,0-1.3-0.6-1.3-1.3v-91.5c0-0.7,0.6-1.3,1.3-1.3h91.5c0.7,0,1.3,0.6,1.3,1.3V207"/>
<path fill="#42485C" d="M386.3,199.8c0,1.2-1,2.2-2.2,2.2h-62.6c-1.2,0-2.2-1-2.2-2.2v-5.6c0-1.2,1-2.2,2.2-2.2h62.6
	c1.2,0,2.2,1,2.2,2.2V199.8z"/>
<path fill="#999999" d="M428.3,215.8c0,1.2-1,2.2-2.2,2.2h-62.6c-1.2,0-2.2-1-2.2-2.2v-5.6c0-1.2,1-2.2,2.2-2.2h62.6
	c1.2,0,2.2,1,2.2,2.2V215.8z"/>
<path fill="#999999" d="M428.3,232.8c0,1.2-1,2.2-2.2,2.2h-62.6c-1.2,0-2.2-1-2.2-2.2v-5.6c0-1.2,1-2.2,2.2-2.2h62.6
	c1.2,0,2.2,1,2.2,2.2V232.8z"/>
<path fill="#42485C" d="M386.3,247.8c0,1.2-1,2.2-2.2,2.2h-62.6c-1.2,0-2.2-1-2.2-2.2v-5.6c0-1.2,1-2.2,2.2-2.2h62.6
	c1.2,0,2.2,1,2.2,2.2V247.8z"/>
<path fill="#42485C" d="M386.3,264.8c0,1.2-1,2.2-2.2,2.2h-62.6c-1.2,0-2.2-1-2.2-2.2v-5.6c0-1.2,1-2.2,2.2-2.2h62.6
	c1.2,0,2.2,1,2.2,2.2V264.8z"/>
<path fill="none" stroke="#8DB31F" stroke-width="3" stroke-miterlimit="10" d="M399.8,230"/>
<path fill="none" stroke="#8DB31F" stroke-width="3" stroke-miterlimit="10" d="M399.8,212"/>
<path fill="#999999" d="M399.8,238"/>
<line fill="none" stroke="#42485C" stroke-width="3" stroke-miterlimit="10" x1="399.8" y1="219" x2="399.8" y2="224"/>
<g>
	<path fill="#999999" d="M394,539.9v-25c0,0-1.3-5.2-4.7-5.2s-30.8,0-30.8,0v-3.1c0,0,1.5-3.7,3.7-6.5c1.2-1.5,0.3-6.1,0.3-6.1
		s-2.1-6.9-8.9-6.9c-6.8,0-10,5.3-10.3,6.9c-0.3,1.5-0.3,5.3,1,6.5c1.8,1.7,3.1,5.9,3.1,5.9l0.2,3.2c0,0-28.9,0.3-31.3,0.3
		c-2.3,0-5.2,2.1-5.2,5.5c0,3.4,0,29.7,0,29.7h-2.6l-10.2-4.2l-4.2-0.3c0,0-7.3,2.3-7.3,8.9c0,8.9,7,9.9,7,9.9h4.4l8.6-3.9l4.2,0.3
		c0,0,0,28.7,0,31.5c0,2.9,2.9,5.5,4.4,5.5s28.1,0,28.1,0s-4.7-4.7-4.7-10.2c0-4.2,2.6-15.2,15.4-14.9c8.9,0.3,12.9,9.3,12.8,13.3
		c-0.2,4.4-3.6,11.7-3.6,11.7s23.2,0,25.5,0c0.5,0,5,0,5-6c0-10.7,0-26.8,0-26.8s-8.6,4.2-12.8,4.2c-3.9,0-13-2.6-13-13.6
		c0-10.6,9.1-14.2,13-14.6C385.1,535.4,394,539.9,394,539.9z"/>
	<ellipse fill="#42485C" cx="352.9" cy="411.1" rx="10" ry="9.4"/>
	<g>
		<path fill="#999999" d="M312.2,453.6v-25c0,0,1.3-5.2,4.7-5.2s30.8,0,30.8,0v-3.1l-3.9-6.8l-0.3-5.2c0,0,2.3-7.6,9.1-7.6
			s9.9,7,9.9,7v4.7l-3.6,6.5l-0.3,4.2c0,0,28.9,0.3,31.3,0.3c2.3,0,5.2,2.1,5.2,5.5c0,3.4,0,31.8,0,31.8l4.5-0.2l8.3-4.4l4.2,0.3
			c0,0,7.3,1.8,7.3,8.3c0,8.9-7,8.3-7,8.3h-4.4l-8.6-1.8l-4.2,0.3c0,0,0,26.6,0,29.4s-2.9,5.5-4.4,5.5s-28.1,0-28.1,0
			s4.7-4.7,4.7-10.2c0-4.2-2.6-15.2-15.4-14.9c-8.9,0.3-12.9,9.3-12.8,13.3c0.2,4.4,3.6,11.7,3.6,11.7s-24.4,0-25.2,0
			c-3.8,0-5.3-0.8-5.3-6c0-10.7,0-26.8,0-26.8s8.6,4.2,12.8,4.2c3.9,0,13-2.6,13-13.6c0-10.6-9.1-14.2-13-14.6
			C321.1,449,312.2,453.6,312.2,453.6z"/>
		<ellipse fill="#999999" cx="353.2" cy="410.3" rx="11.3" ry="10.6"/>
		<ellipse fill="#999999" cx="409.5" cy="465.6" rx="11.3" ry="10.6"/>
	</g>
	<ellipse fill="#999999" cx="295.8" cy="549.5" rx="11.3" ry="10.6"/>
	<ellipse fill="#999999" cx="353.2" cy="495.8" rx="11.3" ry="10.6"/>
	<g>
		<path fill="#999999" d="M398.4,475.7v25c0,0,1.3,5.2,4.7,5.2c3.4,0,30.8,0,30.8,0v3.1l-3.9,6.8l-0.3,5.2c0,0,2.3,7.6,9.1,7.6
			c6.8,0,9.9-7,9.9-7v-4.7l-3.6-6.5l-0.3-4.2c0,0,28.9-0.3,31.3-0.3c2.3,0,5.2-2.1,5.2-5.5c0-3.4,0-29.7,0-29.7h2.6L494,475l4.2,0.3
			c0,0,7.3-2.3,7.3-8.9c0-8.9-7-9.9-7-9.9H494l-8.6,3.9l-4.2-0.3c0,0,0-28.7,0-31.5s-2.9-5.5-4.4-5.5s-28.1,0-28.1,0
			s4.7,4.7,4.7,10.2c0,4.2-2.6,15.2-15.4,14.9c-8.9-0.3-12.9-9.3-12.8-13.3c0.2-4.4,3.6-11.7,3.6-11.7s-17.4,0-24.4,0
			c0,0-6.1,0-6.1,6c0,10.7,0,26.8,0,26.8s8.6-4.2,12.8-4.2c3.9,0,13,2.6,13,13.6c0,10.6-9.1,14.2-13,14.6
			C407.3,480.3,398.4,475.7,398.4,475.7z"/>
		<ellipse fill="#999999" cx="496.5" cy="465.6" rx="11.3" ry="10.6"/>
		<ellipse fill="#999999" cx="439.2" cy="519.8" rx="11.3" ry="10.6"/>
		<ellipse fill="#999999" cx="438.9" cy="519" rx="10" ry="9.4"/>
	</g>
	<g>
		<path fill="#42485C" d="M480.2,561.2v25c0,0-1.3,5.2-4.7,5.2c-3.4,0-30.8,0-30.8,0v3.1l3.9,6.8l0.3,5.2c0,0-2.3,7.6-9.1,7.6
			s-9.9-7-9.9-7v-4.7l3.6-6.5l0.3-4.2c0,0-28.9-0.3-31.3-0.3s-5.2-2.1-5.2-5.5s0-29.7,0-29.7h-2.6l-10.2,4.2l-4.2,0.3
			c0,0-7.3-2.3-7.3-8.9c0-8.9,7-9.9,7-9.9h4.4l8.6,3.9l4.2-0.3c0,0,0-28.7,0-31.5c0-2.9,2.9-5.5,4.4-5.5c1.6,0,28.1,0,28.1,0
			s-4.7,4.7-4.7,10.2c0,4.2,2.6,15.2,15.4,14.9c8.9-0.3,12.9-9.3,12.8-13.3c-0.2-4.4-3.6-11.7-3.6-11.7s17.4,0,24.4,0
			c0,0,6.1,0,6.1,6c0,10.7,0,26.8,0,26.8s-8.6-4.2-12.8-4.2c-3.9,0-13,2.6-13,13.6c0,10.6,9.1,14.2,13,14.6
			C471.3,565.8,480.2,561.2,480.2,561.2z"/>
		<ellipse fill="#42485C" cx="382.1" cy="551.1" rx="11.3" ry="10.6"/>
		<ellipse fill="#42485C" cx="439.4" cy="605.3" rx="11.3" ry="10.6"/>
		<ellipse fill="#42485C" cx="439.7" cy="604.4" rx="10" ry="9.4"/>
	</g>
</g>
<path fill="none" stroke="#42485C" stroke-width="4" stroke-miterlimit="10" d="M695.6,430.7c-0.2,0-0.5-0.1-0.7-0.1
	c-35.5-5.7-62.6-36.5-62.6-73.6c0-41.1,33.4-74.5,74.5-74.5"/>
<path fill="none" stroke="#42485C" stroke-width="4" stroke-miterlimit="10" d="M713.2,282.8c38.1,3.3,68.1,35.2,68.1,74.2
	c0,41.1-33.4,74.5-74.5,74.5"/>
<line fill="none" stroke="#42485C" stroke-width="3" stroke-linecap="square" stroke-miterlimit="10" x1="694.8" y1="271.5" x2="706.8" y2="282.5"/>
<line fill="none" stroke="#42485C" stroke-width="3" stroke-linecap="square" stroke-miterlimit="10" x1="706.8" y1="282.5" x2="694.8" y2="295"/>
<line fill="none" stroke="#42485C" stroke-width="3" stroke-linecap="square" stroke-miterlimit="10" x1="716.8" y1="443" x2="704.8" y2="432"/>
<line fill="none" stroke="#42485C" stroke-width="3" stroke-linecap="square" stroke-miterlimit="10" x1="704.8" y1="432" x2="716.8" y2="419.5"/>
<rect x="637.8" y="523.5" fill="none" stroke="#42485C" stroke-width="3" stroke-linecap="square" stroke-linejoin="bevel" stroke-miterlimit="10" width="136" height="95"/>
<path fill="none" stroke="#42485C" stroke-width="3" stroke-linecap="square" stroke-linejoin="bevel" stroke-miterlimit="10" d="
	M716.3,752.2c0,10.6-12.8,15.2-34.7,15.2s-33.7-4.6-33.7-15.2s11.8-15.2,33.7-15.2S716.3,741.6,716.3,752.2z"/>
<path fill="#42485C" d="M727.6,769c-23.7,0-35.2-5.5-35.2-16.8c0-5.3,2.2-8.6,7.3-11.4l4,1.3c-4.2,2.2-8.4,6-8.4,10.1
	c0,9.3,10.5,13.8,32.2,13.8c22.1,0,33.2-4.6,33.2-13.8s-11.2-13.8-33.2-13.8c-7.2,0-12.5,0.4-17.3,1.4l-4.3-2.4c5-1.5,14.1-2,21.5-2
	c24,0,36.2,5.6,36.2,16.8S751.6,769,727.6,769z"/>
<ellipse fill="#42485C" cx="410.6" cy="697.6" rx="12.6" ry="12.7"/>
<circle fill="none" stroke="#42485C" stroke-width="3" stroke-miterlimit="10" cx="410.8" cy="739.1" r="57.7"/>
<line fill="none" stroke="#42485C" stroke-width="3" stroke-miterlimit="10" x1="410.8" y1="716" x2="410.8" y2="749"/>
<line fill="none" stroke="#42485C" stroke-width="3" stroke-miterlimit="10" x1="410.8" y1="748" x2="377" y2="716"/>
<rect x="404.9" y="688.5" fill="none" width="12.6" height="19.4"/>
<text transform="matrix(1 0 0 1 404.9358 705.0654)" fill="#E6E6E6" font-family="'MyriadPro-Regular'" font-size="23.2908">$</text>
<g>
	<rect x="1023.8" y="299.5" fill="#42485C" stroke="#8DB31F" stroke-width="3" stroke-miterlimit="10" width="264" height="131"/>
	<rect x="1036.3" y="322" fill="none" width="232.5" height="86"/>
	<rect x="1015.8" y="283.5" fill="#42485C" stroke="#8DB31F" stroke-width="3" stroke-miterlimit="10" width="279" height="34"/>
	<rect x="1059.8" y="359" fill="none" width="200" height="35"/>
	<text transform="matrix(1 0 0 1 1059.8334 381.6797)" fill="#FFFFFF" font-family="'AvenirNext-DemiBold'" font-size="30">Coming Soon!</text>
	<g>
		<polygon fill="#42485C" points="1018.2,280 1067.6,246 1253.2,246 1292.8,280 		"/>
		<path fill="#8DB31F" d="M1252.6,248l36.1,31H1023l45-31h184.3 M1253.7,245h-186.6l-53.8,37h283.5L1253.7,245L1253.7,245z"/>
	</g>
</g>
<polygon fill="#E2B330" points="86.4,99 54.3,82.3 22.3,99.3 28.2,63.6 2.2,38.4 38,33 53.9,0.4 70.1,32.9 106,37.9 80.1,63.3 "/>
<polygon fill="#CCCCCC" points="86.4,216 54.3,199.3 22.3,216.3 28.2,180.6 2.2,155.4 38,150 53.9,117.4 70.1,149.9 106,154.9 
	80.1,180.3 "/>
<circle fill="#666255" cx="267.3" cy="60.1" r="24.9"/>
<path fill="#666255" d="M218,133.4c0-26.5,21.8-48,48.7-48s48.7,21.5,48.7,48"/>
</svg>
