<?xml version="1.0" encoding="utf-8"?>
<!-- Generator: Adobe Illustrator 17.1.0, SVG Export Plug-In . SVG Version: 6.00 Build 0)  -->
<!DOCTYPE svg PUBLIC "-//W3C//DTD SVG 1.1//EN" "http://www.w3.org/Graphics/SVG/1.1/DTD/svg11.dtd">
<svg version="1.1" id="Layer_1" xmlns="http://www.w3.org/2000/svg" xmlns:xlink="http://www.w3.org/1999/xlink" x="0px" y="0px"
	 viewBox="0 0 925.5 364.5" enable-background="new 0 0 925.5 364.5" xml:space="preserve">
<g>
	<path fill="#FFFFFF" d="M47.9,348.4c0-100,0-200,0-300c283.3,0,566.7,0,850,0c0,100,0,200,0,300
		C614.6,348.4,331.2,348.4,47.9,348.4z M245,77.1c-2.1-1.3-4.4-2.9-6.8-4.3c-28.8-16.4-59.8-20.3-92.2-16.2
		C87.3,64,44.9,116,54.8,176.9c8.3,50.9,47.4,81.5,94.3,85.2c31.9,2.6,63-2.5,93.7-10.8c3-0.8,3.9-2.1,3.9-5.1
		c-0.1-15.3-0.3-30.7,0.1-46c0.1-3.1,2-6.5,3.8-9.2c1.9-2.9,4.8-5.1,8-8.3c-19.6,0-38,0.6-56.3-0.3c-9.6-0.5-12.6,6.3-18,10.8
		c0.1,0.4,0.3,0.8,0.4,1.2c11.4,0,22.8,0,34.5,0c0,15.7-0.2,30.8,0.1,46c0.1,4-1.4,5.8-5.1,6.2c-12.5,1.4-25,3.6-37.6,3.9
		c-27.8,0.6-50.3-11.3-68.1-32.1c-19.7-23.1-27.4-50.3-24.7-80.3c1.9-21,10.2-39.4,26-54.1c26.9-25,76.3-25,104.2-0.2
		c3.4,3,6,5.9,5.2,10.9c-0.4,2.7-0.1,5.5-0.1,8.1C227.8,94.3,236.2,85.9,245,77.1z M698.2,125.2c-23.8,0.5-47.2-0.2-70.3,1.9
		c-26.6,2.4-43.8,20.7-47.2,46.4c-3.3,25.3,15,47.8,40.4,49.8c4.4,0.3,8.8,0.5,13.8,0.8c-4,10.9-2,20.1,6.4,28.4
		c-8.5,1.2-15.8,1.9-22.9,3.2c-14.7,2.8-28.8,7.2-40.1,17.6c-9.4,8.7-14.4,19.5-12.5,32.6c1.9,13,9.9,21.4,21,27.4
		c14,7.5,29.2,8.7,44.6,8.3c18.6-0.6,35.9-5,50.6-17c21.8-17.8,26.5-49.5,1.6-69.9c-6.3-5.2-12.8-10.2-18.9-15.5
		c-7.7-6.7-8.1-14.8-0.9-22.1c3-3.1,6.6-5.6,9.8-8.5c21.9-19.2,22.8-47,2.2-67.5c-1-1-1.9-2.1-2.8-3.1c0-0.4-0.1-0.9-0.1-1.3
		C683.8,139,692.3,136.1,698.2,125.2z M339.4,260.6c5.9-0.8,12-1.1,17.7-2.5c28.2-6.9,46.2-24.8,51.8-53.2
		c5.4-26.9-3.3-49.8-25.4-66.5c-17.1-12.9-36.9-15-57.5-10.8c-36.4,7.5-59.9,41.4-53.9,77.8C277.5,237.4,305.3,260.1,339.4,260.6z
		 M493.2,260.6c5.9-0.8,12-1.1,17.7-2.5c28.5-6.9,46.5-24.8,52.1-53.4c5.3-26.9-3.5-49.8-25.7-66.4c-17-12.8-36.6-14.8-57-10.6
		c-31.4,6.4-54.7,33.7-55.2,64.7C424.6,230.4,454.3,260,493.2,260.6z M704.2,69.3c0.2,0.4,0.3,0.8,0.5,1.2c5.4,0,10.8,0,16.2,0
		c0.1,1,0.3,1.5,0.3,2c0,55.8,0.1,111.6-0.1,167.4c0,2.5-1.6,5.3-3.2,7.4c-2.3,2.9-5.3,5.2-8.1,7.8c16.4,1,32.2,0.8,47.9,1.2
		c6.1,0.2,8.5-3.5,12-7.9c-4.5-0.6-8.3-1.2-12-1.6c-6.5-0.8-9.1-3.5-9.1-10.1c0-53.6-0.1-107.3,0.1-160.9c0-2.8,1.7-5.9,3.4-8.3
		c2.1-3,5.1-5.3,8.4-8.6c-15.3,0-29.3,0-43.3,0.1c-1.2,0-2.8,0.4-3.6,1.2C710.4,62.9,707.3,66.2,704.2,69.3z M887.3,161
		c-0.4-1.5-0.5-2.5-0.8-3.4c-0.3-1-0.7-1.9-1-2.8c-8.9-20.8-26-28.5-47.1-29c-33.1-0.8-59.3,22.7-63.5,55.5
		c-4.3,33.6,15.4,75.2,59.8,78.5c20.9,1.6,39.2-3.9,53.7-19.7c0.5-0.6,0.8-1.4,1.8-3.1c-18.8,9.7-37,12.8-55.5,3.4
		c-18.3-9.3-27.9-25.2-33.2-44.7C830.3,184.1,858.7,172.6,887.3,161z"/>
	<path d="M245,77.1c-8.8,8.8-17.2,17.2-25.9,25.8c0-2.6-0.4-5.4,0.1-8.1c0.8-5-1.8-7.8-5.2-10.9c-27.9-24.9-77.4-24.9-104.2,0.2
		c-15.8,14.7-24,33-26,54.1c-2.8,30,5,57.2,24.7,80.3c17.8,20.8,40.3,32.6,68.1,32.1c12.5-0.3,25.1-2.5,37.6-3.9
		c3.7-0.4,5.2-2.2,5.1-6.2c-0.3-15.1-0.1-30.3-0.1-46c-11.6,0-23,0-34.5,0c-0.1-0.4-0.3-0.8-0.4-1.2c5.4-4.5,8.4-11.3,18-10.8
		c18.3,0.9,36.6,0.3,56.3,0.3c-3.2,3.2-6.1,5.4-8,8.3c-1.8,2.7-3.7,6.1-3.8,9.2c-0.4,15.3-0.3,30.7-0.1,46c0,3-0.9,4.3-3.9,5.1
		c-30.7,8.4-61.8,13.4-93.7,10.8c-46.9-3.8-86-34.4-94.3-85.2C44.9,116,87.3,64,146,56.5c32.3-4.1,63.4-0.2,92.2,16.2
		C240.6,74.1,242.9,75.7,245,77.1z"/>
	<path d="M698.2,125.2c-5.9,10.9-14.4,13.8-25.3,11.5c0,0.4,0.1,0.9,0.1,1.3c0.9,1,1.8,2.1,2.8,3.1c20.6,20.5,19.7,48.3-2.2,67.5
		c-3.3,2.9-6.8,5.4-9.8,8.5c-7.1,7.4-6.8,15.4,0.9,22.1c6.2,5.4,12.6,10.3,18.9,15.5c24.8,20.4,20.2,52.2-1.6,69.9
		c-14.7,12-32.1,16.4-50.6,17c-15.4,0.5-30.6-0.7-44.6-8.3c-11.1-6-19.2-14.4-21-27.4c-1.9-13.1,3.1-23.9,12.5-32.6
		c11.3-10.5,25.4-14.9,40.1-17.6c7.1-1.3,14.4-2.1,22.9-3.2c-8.3-8.3-10.3-17.5-6.4-28.4c-5-0.3-9.4-0.4-13.8-0.8
		c-25.4-1.9-43.8-24.5-40.4-49.8c3.4-25.8,20.6-44,47.2-46.4C651,125,674.4,125.7,698.2,125.2z M645,260.8
		c-15.9,1-29.6,2.3-41.6,10.3c-7,4.6-11.6,10.8-12.8,19.3c-1.8,12.9,3.4,22.8,13.8,30c11.5,7.8,24.5,9.8,38.1,9.5
		c10-0.2,19.5-2.3,27.8-8.3c14.5-10.4,16.4-29.4,3.7-42c-5-5-11-9.2-16.4-13.8C653.3,262.2,648.7,259.9,645,260.8z M668.2,182.6
		c-0.6-12.1-5.2-26.5-16.1-38.2c-7.9-8.5-17.6-12.5-29.3-9.1c-11.1,3.2-16.6,11.7-17.8,22.4c-2,17.4,2.1,33.4,13.4,47.1
		c8.7,10.5,20.4,13.6,32.2,9.3C662.2,209.8,668.2,200.3,668.2,182.6z"/>
	<path d="M339.4,260.6c-34.1-0.5-61.9-23.2-67.2-55.1c-6-36.4,17.5-70.3,53.9-77.8c20.6-4.2,40.3-2.2,57.5,10.8
		c22.1,16.7,30.8,39.5,25.4,66.5c-5.7,28.4-23.6,46.2-51.8,53.2C351.4,259.5,345.3,259.8,339.4,260.6z M384,210.6
		c-0.7-7.3-0.9-14.1-2-20.8c-2.4-14.6-6.9-28.5-16.3-40.2c-9.6-11.9-22-17.1-37.1-13.7c-15.7,3.5-25.7,13.3-29.1,29.3
		c-2.5,11.9-1.4,23.9,1.2,35.6c3.4,15.5,8.9,30.1,20.8,41.2c19.2,17.9,49.4,10.8,58.4-13.8C382.1,222.5,382.8,216.3,384,210.6z"/>
	<path d="M493.2,260.6c-38.9-0.5-68.6-30.1-68-68.3c0.5-31,23.8-58.3,55.2-64.7c20.5-4.1,40-2.1,57,10.6
		c22.1,16.6,31,39.4,25.7,66.4c-5.6,28.6-23.6,46.6-52.1,53.4C505.1,259.5,499.1,259.8,493.2,260.6z M487.2,135.1
		c-15.3,0-30.5,11.6-33.5,30.3c-1.6,9.7-1.1,19.9,0.1,29.7c1.9,15.3,7.1,29.7,17,41.9c9.5,11.7,21.7,17.1,36.6,14
		c15.1-3.1,24.8-13,28-27.8c1.8-8.1,2-16.9,1.4-25.2c-1.3-17.3-6-33.7-16.8-47.7C512.8,140.7,503.3,134.8,487.2,135.1z"/>
	<path d="M704.2,69.3c3.1-3.1,6.2-6.4,9.5-9.4c0.9-0.8,2.4-1.2,3.6-1.2c14-0.1,28-0.1,43.3-0.1c-3.3,3.3-6.3,5.7-8.4,8.6
		c-1.7,2.4-3.4,5.5-3.4,8.3c-0.2,53.6-0.2,107.3-0.1,160.9c0,6.6,2.6,9.3,9.1,10.1c3.8,0.4,7.5,1,12,1.6c-3.5,4.4-5.9,8.1-12,7.9
		c-15.8-0.4-31.5-0.1-47.9-1.2c2.7-2.6,5.8-4.9,8.1-7.8c1.6-2.1,3.2-4.9,3.2-7.4c0.2-55.8,0.1-111.6,0.1-167.4c0-0.5-0.1-1-0.3-2
		c-5.3,0-10.7,0-16.2,0C704.5,70.1,704.4,69.7,704.2,69.3z"/>
	<path d="M887.3,161c-28.7,11.6-57,23.1-85.9,34.7c5.3,19.5,14.9,35.4,33.2,44.7c18.5,9.4,36.7,6.4,55.5-3.4c-1,1.7-1.3,2.5-1.8,3.1
		c-14.5,15.8-32.8,21.3-53.7,19.7c-44.4-3.4-64.1-44.9-59.8-78.5c4.2-32.8,30.4-56.3,63.5-55.5c21.1,0.5,38.3,8.2,47.1,29
		c0.4,0.9,0.8,1.8,1,2.8C886.8,158.5,887,159.5,887.3,161z M799.6,186.8c1.1-0.1,1.7-0.1,2.1-0.2c17.6-7.1,35.2-14.1,52.7-21.3
		c4.7-1.9,6.1-5.5,4.3-10.8c-3.7-11.2-11.9-17.6-23.3-19.3c-12.7-2-23,3.3-30.3,13.4C796.8,160.3,797.1,173.4,799.6,186.8z"/>
	<path fill="#FFFFFF" d="M645,260.8c3.7-0.9,8.3,1.3,12.6,5c5.4,4.7,11.3,8.8,16.4,13.8c12.7,12.6,10.8,31.6-3.7,42
		c-8.3,5.9-17.8,8.1-27.8,8.3c-13.5,0.3-26.6-1.7-38.1-9.5c-10.5-7.2-15.6-17-13.8-30c1.2-8.5,5.8-14.7,12.8-19.3
		C615.4,263.2,629.1,261.8,645,260.8z"/>
	<path fill="#FFFFFF" d="M668.2,182.6c0,17.7-6,27.2-17.6,31.5c-11.8,4.3-23.5,1.2-32.2-9.3C607.1,191.1,603,175,605,157.6
		c1.2-10.7,6.7-19.2,17.8-22.4c11.6-3.4,21.4,0.6,29.3,9.1C662.9,156.1,667.5,170.5,668.2,182.6z"/>
	<path fill="#FFFFFF" d="M384,210.6c-1.3,5.7-1.9,11.9-4,17.5c-9,24.6-39.2,31.7-58.4,13.8c-11.9-11.1-17.4-25.7-20.8-41.2
		c-2.6-11.7-3.7-23.7-1.2-35.6c3.4-16,13.4-25.7,29.1-29.3c15.1-3.4,27.5,1.8,37.1,13.7c9.4,11.7,13.9,25.6,16.3,40.2
		C383.1,196.5,383.4,203.3,384,210.6z"/>
	<path fill="#FFFFFF" d="M487.2,135.1c16.1-0.3,25.6,5.6,32.9,15.2c10.8,14,15.5,30.5,16.8,47.7c0.6,8.3,0.4,17.1-1.4,25.2
		c-3.2,14.9-12.8,24.7-28,27.8c-14.9,3.1-27.2-2.3-36.6-14c-9.9-12.2-15.2-26.6-17-41.9c-1.2-9.8-1.7-20-0.1-29.7
		C456.8,146.7,471.9,135.1,487.2,135.1z"/>
	<path fill="#FFFFFF" d="M799.6,186.8c-2.5-13.4-2.8-26.5,5.5-38.2c7.3-10.2,17.6-15.4,30.3-13.4c11.3,1.7,19.5,8.1,23.3,19.3
		c1.8,5.3,0.4,8.8-4.3,10.8c-17.5,7.2-35.1,14.2-52.7,21.3C801.2,186.8,800.7,186.7,799.6,186.8z"/>
</g>
</svg>
